<svg width="740" height="351" xmlns="http://www.w3.org/2000/svg">
 <defs>
  <filter height="200%" width="200%" y="-50%" x="-50%" id="svg_1_blur">
   <feGaussianBlur stdDeviation="0" in="SourceGraphic"/>
  </filter>
 </defs>
 <g>
  <title>Layer 1</title>
  <g stroke="null">
   <g stroke="null"/>
  </g>
  <line stroke="#fff" stroke-width="10" id="svg_2" y2="196.99999" x2="684.59998" y1="197" x1="16.59999" fill="none"/>
  <text filter="url(#svg_1_blur)" transform="matrix(5.64086 0 0 5.85825 -696.146 -1285.89)" stroke="#fff" xml:space="preserve" text-anchor="start" font-family="'Brygada 1918'" font-size="24" id="svg_1" y="249.18128" x="126.35408" fill="#ffffff">Fit    ibes</text>
  <g stroke="null">
   <g stroke="null">
    <g stroke="null" id="svg_4">
     <path stroke="null" fill="#ffffff"  d="m308.19444,59.0354l-20.96969,-25.79247c-1.11125,-1.36633 -2.70624,-2.10268 -4.34459,-2.01674l-41.88004,0l-41.88147,0c-1.64063,-0.0853 -3.23278,0.6501 -4.34345,2.01674l-20.96969,25.79247c-1.66202,2.04454 -1.9136,5.07524 -0.61638,7.42774l34.18202,61.98333c-1.62295,4.60117 -2.51486,9.61603 -2.51486,14.86283c0,22.35062 16.17728,40.47129 36.13441,40.47129c0.00314,0 0.00628,-0.00032 0.00941,-0.00032s0.00628,0.00032 0.00941,0.00032c19.95713,0 36.13441,-18.12067 36.13441,-40.47129c0,-5.24743 -0.89191,-10.26134 -2.51457,-14.86251l34.18174,-61.98365c1.29693,-2.3525 1.04536,-5.3832 -0.61666,-7.42774zm-67.19432,5.32282l20.98851,0l-20.94658,38.48106c-0.01084,0 -0.02139,-0.00064 -0.03223,-0.00064c-0.00314,0 -0.00628,0 -0.00941,0s-0.00628,0 -0.00941,0c-0.01084,0 -0.02139,0.00064 -0.03223,0.00064l-20.94658,-38.48106l20.98794,0zm-27.156,52.24367l-29.04991,-52.67685l13.19123,-16.22468l31.21479,57.34383c-5.98751,2.31416 -11.26138,6.34062 -15.35611,11.5577zm35.58135,51.95424l-12.78906,0l0,-27.61467l-10.02206,0l0,-9.91632c1.55706,0.04664 3.07419,-0.10319 4.54967,-0.44724c1.47577,-0.34438 2.80722,-0.91781 3.99662,-1.72188c1.18883,-0.8028 2.16174,-1.88225 2.92074,-3.23708c0.75785,-1.35323 1.17771,-3.01793 1.26071,-4.99282l10.08338,0l0,47.93002zm18.73093,-51.95392c-4.09445,-5.21708 -9.36889,-9.24418 -15.3564,-11.55834l31.21451,-57.34351l13.19123,16.225l-29.04934,52.67685z"/>
    </g>
   </g>
  </g>
  <g stroke="null">
   <g stroke="null">
    <g stroke="null">
     <path stroke="null" fill="#ffffff" d="m663.32325,117.28873c-0.55451,-1.46075 -1.39736,-2.76902 -2.43984,-3.94311c-1.82829,-7.09942 -5.44685,-15.2418 -10.70676,-23.31709c-8.42219,-12.95157 -30.71975,-33.81984 -39.19263,-37.03715c-0.42143,-0.16468 -0.80166,-0.25616 -1.15655,-0.3385c-0.28834,-2.00967 -1.47024,-3.87602 -4.2713,-5.15684c-4.36952,-1.97308 -8.67884,-3.90041 -12.72517,-5.24528c-4.86066,-13.29312 -18.00725,-22.86575 -33.4606,-22.86575c-19.57889,0 -35.50436,15.31804 -35.50436,34.16139c0,18.8403 15.92547,34.16749 35.50436,34.16749c16.11242,0 29.73431,-10.39907 34.05314,-24.58876c3.22248,-0.47573 6.00136,-0.31411 7.56666,1.93038c4.35368,6.23334 9.15414,26.97963 17.12638,40.23921c-2.01524,-0.26531 -4.09385,-0.41169 -6.23584,-0.41169c-9.20167,0 -17.47176,2.59214 -23.31152,6.74567c-5.00008,-7.50807 -13.72645,-12.49718 -23.68225,-12.49718c-13.18462,0 -24.20824,8.73705 -27.25962,20.52062l-1.21041,0.00915l0.6971,55.95369l14.37602,-0.23787l5.21554,-8.89258c9.06225,-3.34844 19.77851,-11.99095 27.2216,-21.18848c10.08888,1.42415 22.82672,2.23534 27.95355,2.23534c5.55142,0 26.54985,-2.35428 32.54804,-4.47373c13.97994,-4.91287 22.44966,-16.45553 18.89447,-25.76895zm-103.95284,-53.7275c-5.73837,0 -10.40257,-4.49203 -10.40257,-10.01482c0,-5.51974 4.66421,-10.00567 10.40257,-10.00567c5.7352,0 10.3994,4.48898 10.3994,10.00567c0,5.52584 -4.66737,10.01482 -10.3994,10.01482z"/>
    </g>
   </g>
  </g>
 </g>
</svg>