<svg xmlns="http://www.w3.org/2000/svg" width="740" height="351"><defs><filter id="a" width="200%" height="200%" x="-50%" y="-50%"><feGaussianBlur in="SourceGraphic"/></filter></defs><path fill="none" stroke="#fff" stroke-width="10" d="M16.6 197h668"/><text xml:space="preserve" x="126.354" y="249.181" fill="#fff" stroke="#fff" filter="url(#a)" font-family="'Brygada 1918'" font-size="24" transform="matrix(5.64086 0 0 5.85825 -696.146 -1285.89)">Fit    ibes</text><path fill="#fff" stroke="null" d="m308.194 59.035-20.97-25.792c-1.11-1.366-2.705-2.103-4.344-2.017H199.12c-1.641-.085-3.233.65-4.344 2.017l-20.97 25.792c-1.662 2.045-1.913 5.076-.616 7.428l34.182 61.983c-1.623 4.602-2.515 9.617-2.515 14.863 0 22.35 16.178 40.472 36.135 40.472h.019c19.957 0 36.134-18.121 36.134-40.472 0-5.247-.892-10.261-2.515-14.862l34.182-61.984c1.297-2.352 1.045-5.383-.617-7.428zM241 64.358h20.989l-20.947 38.481h-.083l-20.947-38.48H241zm-27.156 52.244-29.05-52.677L197.985 47.7l31.215 57.344c-5.987 2.314-11.261 6.34-15.356 11.558zm35.581 51.954h-12.789v-27.615h-10.022v-9.916a17.63 17.63 0 0 0 4.55-.447 11.887 11.887 0 0 0 3.997-1.722c1.188-.803 2.161-1.882 2.92-3.237.758-1.353 1.178-3.018 1.261-4.993h10.083v47.93zm18.731-51.954c-4.094-5.217-9.368-9.244-15.356-11.558L284.015 47.7l13.19 16.225-29.049 52.677zM663.323 117.289c-.554-1.461-1.397-2.77-2.44-3.943-1.828-7.1-5.446-15.242-10.706-23.317-8.423-12.952-30.72-33.82-39.193-37.038a8.01 8.01 0 0 0-1.157-.338c-.288-2.01-1.47-3.876-4.27-5.157-4.37-1.973-8.68-3.9-12.726-5.245-4.86-13.293-18.007-22.866-33.46-22.866-19.58 0-35.505 15.318-35.505 34.161 0 18.84 15.926 34.168 35.504 34.168 16.113 0 29.735-10.4 34.054-24.589 3.222-.476 6-.314 7.566 1.93 4.354 6.234 9.154 26.98 17.127 40.24a47.715 47.715 0 0 0-6.236-.412c-9.202 0-17.472 2.592-23.312 6.746-5-7.508-13.726-12.497-23.682-12.497-13.185 0-24.208 8.737-27.26 20.52l-1.21.01.697 55.953 14.376-.238 5.216-8.892c9.062-3.349 19.778-11.991 27.221-21.189 10.09 1.424 22.827 2.235 27.954 2.235 5.551 0 26.55-2.354 32.548-4.473 13.98-4.913 22.45-16.456 18.894-25.77zM559.37 63.56c-5.738 0-10.402-4.492-10.402-10.015 0-5.52 4.664-10.005 10.402-10.005 5.736 0 10.4 4.489 10.4 10.005 0 5.526-4.668 10.015-10.4 10.015z"/></svg>